<?xml version="1.0" standalone="no"?>
<!DOCTYPE svg PUBLIC "-//W3C//DTD SVG 20010904//EN"
 "http://www.w3.org/TR/2001/REC-SVG-20010904/DTD/svg10.dtd">
<svg version="1.0" xmlns="http://www.w3.org/2000/svg"
 width="1263.000000pt" height="892.000000pt" viewBox="0 0 1263.000000 892.000000"
 preserveAspectRatio="xMidYMid meet">

<g transform="translate(0.000000,892.000000) scale(0.100000,-0.100000)"
fill="#000000" stroke="none">
<path d="M3145 8794 c-34 -17 -85 -63 -85 -76 0 -5 11 -6 25 -2 31 8 51 -8 70
-52 7 -18 33 -52 58 -76 24 -24 51 -54 60 -68 21 -31 42 -21 72 33 11 20 23
37 26 37 4 0 14 -24 23 -52 16 -52 16 -53 11 -11 -8 64 -52 175 -87 218 -51
61 -115 79 -173 49z"/>
<path d="M3020 8658 c-32 -73 -60 -168 -59 -198 0 -14 8 7 18 45 10 39 29 99
44 135 32 77 29 92 -3 18z"/>
<path d="M5148 8656 c-10 -7 -16 -21 -14 -32 18 -87 25 -101 76 -151 29 -29
57 -53 62 -53 4 0 23 22 40 50 18 27 38 50 44 50 7 0 19 -17 27 -37 9 -21 16
-31 16 -23 1 24 -43 112 -74 148 -15 18 -40 39 -56 47 -35 18 -98 19 -121 1z"/>
<path d="M6983 8538 c-6 -7 -13 -36 -17 -64 -6 -51 -6 -51 39 -93 24 -22 48
-41 53 -41 5 0 28 23 51 50 49 58 56 57 97 -19 30 -56 20 -13 -11 49 -27 52
-78 104 -118 119 -38 15 -82 14 -94 -1z"/>
<path d="M3412 8450 c0 -14 2 -19 5 -12 2 6 2 18 0 25 -3 6 -5 1 -5 -13z"/>
<path d="M5401 8424 c0 -11 3 -14 6 -6 3 7 2 16 -1 19 -3 4 -6 -2 -5 -13z"/>
<path d="M2953 8424 c5 -8 -11 -14 -49 -19 -32 -4 -93 -24 -147 -50 -110 -52
-209 -143 -273 -251 -66 -109 -88 -212 -139 -636 -25 -205 -52 -425 -60 -488
-9 -63 -38 -302 -65 -530 -28 -228 -68 -559 -90 -735 -22 -176 -60 -489 -85
-695 -25 -206 -63 -519 -85 -695 -22 -176 -64 -525 -95 -775 -67 -551 -104
-855 -150 -1225 -19 -154 -60 -485 -90 -735 -30 -250 -60 -491 -65 -534 -6
-44 -7 -83 -3 -87 5 -4 247 -113 538 -242 292 -129 708 -313 925 -410 217 -96
457 -202 533 -236 77 -33 147 -61 158 -61 21 0 283 40 634 95 121 20 236 38
255 40 36 5 378 58 765 120 121 19 281 44 355 55 74 10 218 33 320 49 270 43
843 132 1200 186 223 34 378 58 870 135 281 44 496 77 756 116 l171 26 224
-56 224 -56 135 6 c216 9 403 73 620 209 76 48 259 224 343 329 83 104 112
149 205 314 56 99 115 238 127 297 3 17 -12 -16 -33 -72 -22 -55 -58 -133 -81
-172 -23 -39 -60 -104 -83 -143 -43 -76 -187 -259 -247 -316 -20 -18 -41 -30
-48 -28 -7 3 -10 -1 -6 -10 3 -7 1 -14 -4 -14 -6 0 -27 -15 -48 -32 -21 -18
-42 -33 -46 -33 -5 0 -8 -4 -6 -8 1 -5 -10 -15 -25 -23 -16 -8 -28 -20 -28
-27 0 -8 -3 -7 -9 2 -8 12 -13 12 -33 0 -12 -8 -36 -16 -52 -17 -29 -2 -29 -1
-10 13 18 14 17 15 -8 4 -15 -7 -25 -15 -23 -20 3 -4 -4 -14 -15 -22 -11 -7
-19 -16 -17 -18 1 -2 -2 -1 -6 2 -18 14 -46 -3 -42 -24 4 -20 3 -21 -9 -4 -13
17 -52 14 -41 -3 3 -5 1 -11 -5 -15 -6 -3 -10 4 -10 17 0 13 -4 18 -8 12 -4
-5 -16 -11 -27 -11 -46 -2 -73 -8 -69 -15 8 -13 -11 -9 -25 5 -11 10 -13 8 -9
-9 5 -18 2 -22 -18 -19 -13 1 -24 -3 -24 -9 0 -6 -5 -4 -10 4 -9 15 -11 13
-14 -12 0 -6 -8 -13 -16 -16 -8 -3 -12 -1 -8 3 12 13 -15 34 -29 23 -9 -7 -18
-6 -30 3 -11 10 -14 10 -9 2 4 -8 2 -13 -6 -14 -7 -1 -25 -3 -41 -5 -17 -2
-25 1 -21 7 3 6 12 8 20 5 8 -3 14 1 14 10 0 13 -6 12 -35 -6 -19 -12 -35 -17
-35 -11 0 13 -80 10 -80 -4 0 -5 -5 -2 -11 8 -5 9 -17 17 -26 17 -15 0 -14 -2
2 -13 17 -13 17 -14 -1 -12 -11 0 -25 5 -32 9 -8 4 -29 8 -47 9 -19 1 -37 7
-39 14 -3 7 -12 10 -20 7 -10 -4 -17 2 -21 19 -6 23 -10 24 -38 16 -17 -5 -33
-5 -36 -1 -4 4 -16 7 -28 6 -12 -1 -20 3 -17 8 3 4 11 5 17 1 8 -4 7 -1 -1 9
-7 9 -22 15 -32 13 -10 -2 -21 3 -24 11 -7 17 -33 18 -39 2 -4 -10 -6 -10 -6
0 -1 6 -6 12 -12 12 -5 0 -7 -6 -3 -12 4 -7 -3 -4 -16 7 -14 12 -20 14 -15 5
4 -8 -1 -6 -12 5 -11 11 -19 27 -19 35 1 8 -5 14 -12 12 -7 -1 -22 7 -34 18
-12 11 -26 20 -31 20 -5 0 -6 7 -3 16 3 8 2 13 -3 9 -16 -9 -70 44 -132 132
-106 149 -129 183 -129 187 0 3 -15 37 -34 78 -74 161 -95 218 -125 338 -18
69 -36 134 -40 145 -12 28 -37 158 -57 293 -34 243 17 661 120 977 25 77 56
157 68 177 13 20 47 74 75 119 81 128 84 195 6 152 -73 -41 -115 -35 -155 22
-18 25 -35 45 -39 45 -16 0 -219 -354 -219 -382 0 -6 -18 -50 -39 -97 -22 -48
-47 -113 -56 -144 -9 -31 -19 -57 -23 -57 -24 0 -491 -51 -519 -56 -18 -3 -32
-9 -29 -12 3 -3 2 -10 -3 -16 -19 -23 -53 -179 -55 -248 -1 -35 -5 -48 -16
-49 -10 0 -11 -2 -2 -6 6 -2 12 -11 12 -19 0 -10 -5 -12 -12 -7 -7 4 -5 -6 6
-21 10 -16 13 -25 7 -22 -8 5 -8 0 0 -18 9 -20 9 -29 -1 -41 -8 -10 -9 -15 -1
-15 6 0 11 -5 11 -11 0 -5 -3 -8 -7 -6 -12 8 -8 -45 5 -70 14 -25 15 -36 4
-29 -4 2 -8 -4 -8 -15 0 -10 4 -19 8 -19 4 0 8 -9 8 -21 0 -13 -4 -18 -12 -14
-7 4 -6 1 2 -7 10 -9 14 -27 12 -55 -2 -24 1 -43 6 -43 6 0 9 -13 8 -29 -3
-41 11 -74 26 -65 10 6 11 4 1 -7 -15 -15 -18 -33 -5 -25 5 3 9 -2 9 -10 0 -8
-6 -13 -13 -10 -6 2 -1 -14 11 -37 13 -23 26 -62 30 -87 4 -25 12 -50 17 -57
5 -7 7 -16 4 -21 -3 -6 1 -15 9 -22 18 -15 9 -38 -18 -43 -12 -3 39 -3 114 0
90 4 142 2 156 -5 13 -7 34 -47 58 -109 33 -84 47 -107 109 -173 39 -41 108
-123 152 -180 104 -133 238 -263 363 -350 l64 -45 -54 -12 c-78 -18 -510 -89
-743 -123 -307 -45 -833 -124 -1301 -196 -88 -14 -248 -38 -355 -54 -107 -15
-303 -45 -435 -65 -260 -39 -606 -91 -1025 -154 -146 -22 -400 -60 -565 -85
-414 -63 -495 -72 -504 -58 -3 6 -21 118 -40 249 -18 131 -70 506 -117 833
-46 327 -106 759 -134 960 -28 201 -64 457 -80 570 -16 113 -52 369 -80 570
-28 201 -66 473 -85 605 -19 132 -55 389 -80 570 -25 182 -66 474 -91 650 -25
176 -63 446 -84 600 -22 154 -60 426 -85 605 -25 179 -47 338 -50 353 -3 15 0
36 7 46 12 19 9 42 -46 431 -73 508 -88 645 -70 663 9 9 53 -23 50 -36 -1 -7
-1 -9 1 -4 8 14 23 7 23 -10 0 -15 2 -16 10 -3 9 13 14 7 11 -12 0 -4 5 -5 13
-2 7 3 21 -2 30 -11 9 -9 21 -13 27 -9 6 3 14 1 18 -5 4 -6 16 -13 27 -15 10
-3 33 -11 49 -19 17 -9 44 -18 60 -20 17 -3 73 -17 125 -31 52 -14 107 -26
121 -26 15 0 32 -7 39 -15 7 -8 21 -15 32 -15 10 0 16 -5 13 -10 -4 -6 -12 -7
-18 -3 -7 4 -6 0 2 -10 12 -15 11 -17 -2 -17 -21 0 -32 -37 -17 -55 10 -12 9
-15 -4 -15 -9 0 -16 -7 -16 -16 0 -9 -8 -23 -17 -30 -13 -10 -13 -12 -3 -9 12
4 15 -4 15 -35 0 -25 -5 -40 -12 -40 -7 0 -13 -7 -13 -16 0 -14 2 -15 17 -3
10 9 14 9 10 2 -4 -7 -1 -28 7 -47 12 -28 12 -34 1 -30 -7 3 -16 -1 -21 -8 -4
-7 -3 -10 1 -5 5 4 16 0 25 -8 10 -9 21 -15 26 -13 5 2 9 -1 9 -7 0 -5 -5 -9
-12 -7 -18 4 -16 -23 3 -38 12 -11 15 -11 12 1 -3 16 30 14 47 -2 7 -7 4 -8
-7 -4 -23 9 -18 -14 12 -48 18 -20 26 -24 33 -15 5 9 7 3 4 -15 -2 -15 0 -30
6 -34 6 -3 7 -1 3 5 -10 17 19 15 36 -1 7 -8 19 -12 25 -10 7 3 20 -5 29 -16
10 -11 22 -17 27 -14 6 4 8 0 5 -8 -4 -10 2 -14 22 -14 19 -1 26 3 23 12 -3 7
0 13 7 13 10 0 10 3 1 14 -9 11 -9 16 0 22 8 4 9 3 5 -4 -4 -7 -1 -12 8 -12
15 0 21 17 16 49 -1 9 4 12 14 8 11 -5 17 3 22 29 5 25 9 32 15 22 7 -10 9 -9
9 5 0 9 6 17 13 17 6 1 1 7 -13 15 -22 12 -21 20 2 16 4 0 5 6 2 14 -4 8 -1
15 5 15 6 0 11 7 11 15 0 8 -4 15 -10 15 -5 0 -8 6 -6 13 12 37 16 68 8 63 -4
-3 -8 16 -7 42 0 26 -4 53 -10 61 -8 12 -7 13 4 6 11 -6 13 -3 7 16 -9 33 -15
64 -22 130 -5 49 -3 58 14 70 29 21 81 108 77 130 -2 10 0 21 6 24 5 4 9 14 9
23 -1 9 -14 -10 -31 -43 -17 -33 -51 -82 -77 -108 l-47 -49 -70 6 c-38 3 -94
6 -123 6 -48 0 -58 4 -88 34 -47 47 -46 85 5 154 42 56 63 107 86 217 15 73
21 219 8 212 -5 -3 -66 -1 -138 3 -144 9 -186 5 -178 -16 10 -27 -74 -17 -115
14 -20 15 -33 22 -29 16z m350 -681 c-7 -2 -19 -2 -25 0 -7 3 -2 5 12 5 14 0
19 -2 13 -5z m127 -518 c7 -9 8 -15 2 -15 -5 0 -12 7 -16 15 -3 8 -4 15 -2 15
2 0 9 -7 16 -15z m116 -65 c0 -19 -1 -19 -18 0 -10 11 -18 21 -18 24 0 2 8 2
18 -1 10 -2 18 -13 18 -23z m5621 -6207 c0 -9 -4 -10 -10 -4 -5 5 -16 7 -25 4
-10 -4 -13 -2 -8 5 9 15 43 11 43 -5z m983 -3 c0 -5 -2 -10 -4 -10 -3 0 -8 5
-11 10 -3 6 -1 10 4 10 6 0 11 -4 11 -10z m-855 -30 c3 -6 -1 -7 -9 -4 -18 7
-21 14 -7 14 6 0 13 -4 16 -10z m275 -60 c0 -5 -5 -10 -11 -10 -5 0 -7 5 -4
10 3 6 8 10 11 10 2 0 4 -4 4 -10z"/>
<path d="M5411 8374 c0 -11 3 -14 6 -6 3 7 2 16 -1 19 -3 4 -6 -2 -5 -13z"/>
<path d="M3802 8358 c5 -13 48 -18 298 -32 310 -18 439 -31 441 -44 3 -30 11
-57 17 -62 4 -3 7 -12 7 -20 0 -8 4 -18 10 -22 5 -4 0 -8 -12 -8 l-23 0 21
-21 c11 -11 18 -27 15 -34 -3 -8 -1 -17 5 -20 5 -4 7 -11 4 -16 -4 -5 0 -9 7
-9 9 0 9 -3 -2 -10 -12 -8 -12 -10 -1 -10 8 0 12 -3 8 -6 -3 -4 4 -15 16 -25
16 -14 18 -19 7 -19 -9 -1 -5 -5 8 -11 13 -5 21 -13 18 -18 -3 -5 11 -24 32
-43 20 -18 38 -37 39 -41 1 -4 23 -25 48 -47 53 -46 176 -107 234 -117 14 -2
33 -9 44 -15 11 -5 72 -19 136 -29 70 -11 120 -24 125 -33 8 -11 18 -11 65 -1
31 7 85 16 121 20 68 7 79 12 120 59 l25 29 -40 -26 c-38 -24 -45 -25 -163
-22 -130 3 -142 7 -168 56 -23 45 -17 67 30 112 74 72 116 183 131 343 l7 71
-93 6 c-50 4 -127 7 -170 7 -68 0 -78 -2 -72 -16 5 -15 -1 -16 -63 -10 -38 4
-78 13 -89 20 -32 20 -74 25 -350 36 -143 6 -366 17 -495 25 -292 18 -303 18
-298 3z m1424 -120 c4 -7 3 -8 -4 -4 -7 4 -12 2 -12 -3 0 -6 4 -11 9 -11 4 0
13 -19 19 -42 16 -59 19 -133 7 -133 -5 0 -9 6 -9 12 1 7 -3 10 -9 6 -6 -4 -8
4 -5 21 3 14 2 26 -2 26 -11 0 -30 57 -22 65 4 3 1 9 -5 13 -15 9 -4 62 13 62
7 0 16 -5 20 -12z"/>
<path d="M4932 8350 c0 -14 2 -19 5 -12 2 6 2 18 0 25 -3 6 -5 1 -5 -13z"/>
<path d="M5790 8246 c0 -11 31 -15 143 -21 193 -9 488 -32 494 -39 3 -3 7 -22
8 -44 1 -21 7 -48 14 -60 6 -11 10 -25 9 -29 -5 -19 15 -89 43 -146 37 -76 69
-121 106 -150 15 -12 34 -27 41 -34 51 -49 172 -96 322 -125 151 -29 185 -30
279 -11 145 31 104 52 -83 44 -70 -3 -93 5 -111 39 -20 39 -19 77 3 95 90 77
115 104 137 149 26 54 55 168 55 223 0 29 -4 33 -37 43 -21 5 -99 13 -173 16
-122 6 -134 5 -120 -9 8 -9 42 -19 75 -24 l60 -8 23 -105 c28 -134 30 -207 5
-225 -21 -16 -37 -9 -84 37 -77 75 -104 131 -115 239 l-6 66 -76 11 c-41 6
-78 15 -82 21 -8 14 -168 26 -590 46 -179 8 -328 15 -332 15 -5 0 -8 -6 -8
-14z"/>
<path d="M3210 7590 c-9 -6 -10 -10 -3 -10 6 0 15 5 18 10 8 12 4 12 -15 0z"/>
<path d="M5480 7450 c0 -5 5 -10 11 -10 5 0 7 5 4 10 -3 6 -8 10 -11 10 -2 0
-4 -4 -4 -10z"/>
<path d="M3211 7434 c0 -11 3 -14 6 -6 3 7 2 16 -1 19 -3 4 -6 -2 -5 -13z"/>
<path d="M3456 7172 c-3 -5 2 -18 10 -28 9 -10 13 -14 10 -7 -4 6 -1 13 5 15
7 2 6 8 -4 16 -8 7 -18 9 -21 4z"/>
<path d="M9418 4373 c-34 -9 -18 -23 27 -23 35 0 43 3 39 15 -6 15 -30 18 -66
8z"/>
<path d="M9745 3981 c-40 -8 -43 -45 -4 -49 22 -3 28 2 33 24 8 32 9 32 -29
25z"/>
<path d="M9905 3976 c208 -25 349 -99 511 -268 69 -72 168 -215 191 -274 6
-17 5 -17 -10 -5 -24 19 -32 7 -18 -27 9 -22 18 -28 34 -25 20 3 26 -7 59 -94
54 -139 92 -333 100 -503 l3 -75 -53 -9 c-52 -9 -53 -10 -50 -40 3 -29 5 -31
51 -34 l48 -3 -3 -102 c-2 -85 0 -105 14 -119 15 -15 17 -14 31 20 48 119 42
408 -12 652 -58 259 -159 462 -316 633 -161 176 -354 269 -580 281 l-110 5
110 -13z"/>
<path d="M10242 3804 c10 -10 20 -16 22 -13 3 3 -5 11 -17 18 -21 13 -21 12
-5 -5z"/>
<path d="M10202 3781 c-17 -48 -14 -63 4 -22 8 19 13 39 11 45 -2 6 -9 -5 -15
-23z"/>
<path d="M9240 3713 c0 -4 5 -15 10 -23 8 -13 10 -13 10 2 0 9 -4 20 -10 23
-5 3 -10 3 -10 -2z"/>
<path d="M9261 3665 c1 -19 18 -51 18 -35 0 8 -4 22 -9 30 -5 8 -9 11 -9 5z"/>
<path d="M8045 3570 c-4 -6 -11 -8 -16 -4 -15 9 -74 -32 -121 -85 -37 -41 -51
-49 -102 -59 -33 -7 -75 -12 -94 -12 -20 0 -32 -3 -28 -7 4 -4 71 -6 149 -4
110 2 156 8 205 24 63 20 64 21 58 51 -19 95 -34 123 -51 96z"/>
<path d="M9300 3555 c0 -5 5 -17 10 -25 5 -8 10 -10 10 -5 0 6 -5 17 -10 25
-5 8 -10 11 -10 5z"/>
<path d="M8880 3225 c0 -5 41 -53 91 -105 49 -52 85 -86 80 -75 -15 28 -171
192 -171 180z"/>
<path d="M10365 3160 c3 -5 8 -10 11 -10 2 0 4 5 4 10 0 6 -5 10 -11 10 -5 0
-7 -4 -4 -10z"/>
<path d="M6650 2840 c-8 -5 -23 -11 -32 -14 -10 -3 -18 -13 -18 -22 0 -11 5
-14 16 -10 14 5 15 4 4 -9 -12 -14 -16 -13 -38 7 -14 13 -22 17 -18 11 4 -7 2
-22 -4 -33 -9 -16 -15 -18 -29 -10 -14 7 -20 6 -24 -3 -3 -9 3 -13 15 -13 12
1 22 -6 23 -16 2 -11 -3 -18 -12 -18 -13 0 -13 2 -2 17 11 13 8 13 -13 -2 -15
-11 -28 -24 -28 -29 0 -5 6 -3 13 3 11 8 14 5 14 -18 0 -20 -4 -28 -14 -24 -7
3 -13 -2 -13 -12 0 -10 -5 -13 -12 -9 -8 5 -9 2 -4 -11 4 -10 2 -21 -4 -25 -8
-5 -6 -13 6 -24 14 -14 15 -19 4 -26 -7 -4 -10 -15 -7 -24 3 -8 2 -18 -4 -21
-5 -4 -7 -17 -5 -31 3 -13 0 -24 -6 -24 -7 0 -6 -6 2 -15 7 -8 10 -22 6 -30
-3 -9 1 -18 10 -22 12 -4 13 -8 3 -14 -10 -6 -10 -11 -1 -22 9 -10 8 -18 -3
-33 -19 -25 -19 -40 0 -24 13 11 14 10 9 -4 -5 -12 -2 -15 12 -10 18 5 18 5 1
-6 -9 -6 -14 -16 -11 -22 5 -8 1 -9 -10 -5 -14 6 -16 3 -10 -16 4 -12 8 -31 9
-42 2 -11 7 -19 13 -18 17 4 35 -34 20 -43 -7 -4 -8 -3 -4 4 4 7 1 12 -7 12
-7 0 -14 -7 -14 -15 0 -8 3 -12 7 -10 3 2 12 0 20 -6 13 -7 13 -9 0 -9 -13 0
-13 -1 0 -10 8 -5 10 -10 4 -10 -6 0 -11 -7 -11 -15 0 -18 14 -20 20 -2 3 9 8
9 18 -2 10 -10 11 -15 2 -18 -7 -2 -11 -10 -9 -16 1 -7 1 -9 -1 -4 -6 10 -23
9 -23 -2 0 -5 10 -13 21 -16 17 -6 19 -9 8 -16 -10 -6 -11 -9 -1 -9 6 0 12 -5
12 -11 0 -5 -6 -7 -12 -4 -7 4 -5 0 4 -8 13 -10 14 -17 6 -25 -8 -8 -5 -9 11
-5 12 3 21 1 21 -6 0 -6 -7 -11 -15 -11 -20 0 -19 -17 3 -29 13 -8 14 -10 2
-11 -12 0 -12 -2 -2 -9 8 -4 14 -12 15 -17 1 -5 5 -8 9 -7 5 2 8 -9 8 -25 0
-22 -2 -24 -11 -12 -9 13 -10 13 -6 0 2 -8 12 -15 23 -15 10 0 19 -2 18 -5 -1
-13 -21 -38 -34 -44 -8 -3 1 -4 20 -1 19 3 86 12 150 20 63 9 149 21 190 28
l75 13 -2 44 c-2 25 -7 65 -12 90 -5 25 -13 63 -16 84 -5 29 -9 36 -16 25 -5
-8 -6 -23 -2 -34 5 -18 4 -18 -11 -6 -11 9 -13 17 -6 26 7 8 5 12 -5 12 -8 0
-15 -4 -15 -8 0 -4 -9 -7 -19 -6 -22 1 -18 17 4 17 9 0 12 6 9 18 -5 14 -4 14
4 3 9 -12 15 -12 34 -3 19 10 19 11 3 7 -16 -4 -21 0 -21 15 0 11 4 20 9 20 5
0 5 6 -2 13 -8 10 -7 17 2 26 9 10 8 11 -5 6 -10 -4 -18 -11 -18 -17 0 -5 -10
-7 -22 -4 -13 3 -17 3 -10 0 6 -3 10 -10 7 -15 -4 -5 2 -6 12 -2 15 6 16 5 3
-9 -17 -18 -30 -14 -30 9 0 10 -6 13 -16 9 -8 -3 -12 -2 -9 3 3 5 1 12 -5 16
-5 3 -10 12 -10 18 0 7 4 6 10 -3 8 -13 10 -12 10 3 0 10 -7 20 -15 23 -8 4
-15 13 -15 20 0 8 -7 17 -16 21 -22 8 5 25 29 17 10 -3 16 -2 15 3 -2 4 2 8 7
8 6 0 10 -19 10 -43 -1 -31 3 -41 12 -38 7 3 13 1 13 -4 0 -6 -7 -10 -15 -10
-8 0 -15 -4 -15 -8 0 -4 9 -8 20 -8 11 0 20 6 20 14 0 8 5 10 13 6 8 -5 8 -2
-2 9 -11 14 -11 17 0 17 9 0 10 3 3 8 -6 4 -14 18 -17 32 -6 24 -5 24 8 6 8
-11 15 -16 15 -11 0 5 -10 19 -22 32 -23 25 -18 44 7 23 21 -17 19 -4 -3 18
-14 14 -21 15 -41 6 -21 -11 -22 -13 -5 -17 17 -4 17 -5 2 -6 -10 0 -18 -6
-18 -12 0 -5 -5 -7 -10 -4 -6 4 -19 1 -28 -6 -12 -10 -12 -7 3 11 11 14 16 22
11 18 -10 -9 -36 9 -36 24 0 5 9 4 19 -2 14 -7 22 -7 26 0 4 6 11 7 17 4 7 -4
8 -2 4 4 -4 7 -3 12 3 12 5 0 11 -3 14 -7 2 -5 3 -3 1 3 -1 6 7 16 17 22 10 7
19 20 18 30 0 14 -2 13 -9 -4 -4 -12 -16 -24 -24 -27 -13 -5 -15 -1 -10 21 4
21 3 24 -5 12 -9 -13 -11 -12 -12 5 0 11 -3 14 -6 7 -2 -6 -10 -9 -16 -5 -7 4
-4 -5 6 -20 10 -15 13 -27 7 -27 -6 0 -8 -5 -4 -11 4 -7 -2 -9 -17 -7 -19 2
-24 10 -26 33 -1 17 0 24 3 18 3 -7 10 -13 16 -13 6 0 3 9 -7 20 -16 18 -20
19 -27 5 -5 -8 -7 -19 -4 -23 3 -5 -1 -9 -9 -9 -12 0 -12 5 1 28 17 33 18 49
3 49 -5 0 -7 -5 -3 -12 4 -6 3 -8 -4 -4 -5 3 -13 0 -15 -6 -4 -8 -6 -9 -6 -2
-1 6 6 17 14 24 8 7 15 17 15 22 0 6 -8 4 -17 -3 -15 -12 -16 -12 -10 4 4 10
7 25 7 32 0 7 8 15 18 18 15 3 15 5 -3 11 -38 14 -48 22 -51 40 -2 13 1 15 11
6 14 -12 22 -4 20 20 0 8 -7 14 -13 12 -10 -2 -10 3 -3 17 6 10 7 22 3 26 -4
5 0 6 9 3 9 -4 16 -1 16 7 0 8 -3 14 -6 13 -18 -2 -33 3 -28 9 4 3 -1 15 -10
26 -10 11 -13 17 -6 14 6 -4 14 -3 18 3 4 6 11 8 16 5 5 -4 6 2 2 11 -4 11 -8
13 -11 6 -4 -14 -42 -16 -42 -3 0 5 6 12 13 15 6 3 2 3 -10 0 -31 -7 -29 2 5
20 15 8 21 15 15 16 -7 0 -13 5 -13 11 0 6 7 8 16 5 15 -6 15 -4 3 10 -12 15
-15 14 -30 -5 -10 -12 -21 -21 -25 -21 -4 0 -3 5 4 12 14 14 16 32 4 24 -5 -3
-9 1 -9 9 0 11 4 12 13 4 7 -6 14 -6 18 -1 3 6 -3 12 -15 15 -12 3 -22 0 -25
-8 -3 -7 -12 -16 -20 -19 -11 -4 -11 0 2 19 18 27 17 28 -6 15z m-50 -95 c0
-2 -6 -5 -13 -8 -8 -3 -14 1 -14 8 0 7 6 11 14 8 7 -3 13 -6 13 -8z m77 -10
c0 -8 -4 -12 -9 -9 -5 3 -6 10 -3 15 9 13 12 11 12 -6z m-57 -20 c0 -7 -30
-13 -34 -7 -3 4 4 9 15 9 10 1 19 0 19 -2z m106 -48 c5 1 8 -5 6 -13 -2 -8 1
-14 7 -14 5 0 8 -7 7 -15 -4 -25 -14 -28 -21 -6 -3 12 -11 18 -17 15 -6 -4 -8
-2 -4 4 3 6 -2 13 -11 15 -10 2 -7 3 7 2 23 -3 24 -2 5 11 -10 8 -15 14 -9 14
5 0 3 4 -5 9 -8 5 -10 14 -6 21 5 9 12 4 20 -16 6 -16 16 -28 21 -27z m-26
-51 c0 -3 -4 -8 -10 -11 -5 -3 -10 -1 -10 4 0 6 5 11 10 11 6 0 10 -2 10 -4z
m-200 -161 c-7 -9 -15 -13 -19 -10 -3 3 1 10 9 15 21 14 24 12 10 -5z m310
-139 c0 -3 -4 -8 -10 -11 -5 -3 -10 -1 -10 4 0 6 5 11 10 11 6 0 10 -2 10 -4z
m-310 -106 c0 -5 -5 -10 -11 -10 -5 0 -7 5 -4 10 3 6 8 10 11 10 2 0 4 -4 4
-10z m344 -80 c-6 -6 -10 -3 -10 10 0 13 4 16 10 10 7 -7 7 -13 0 -20z m13
-32 c-3 -8 -6 -5 -6 6 -1 11 2 17 5 13 3 -3 4 -12 1 -19z m129 -152 c2 -14 0
-26 -6 -26 -5 0 -10 14 -10 32 0 36 9 33 16 -6z m1 -78 c-3 -8 -6 -5 -6 6 -1
11 2 17 5 13 3 -3 4 -12 1 -19z"/>
<path d="M6840 2829 c0 -5 -4 -8 -8 -5 -5 3 -9 -1 -9 -9 0 -25 23 -24 25 1 1
13 0 24 -3 24 -3 0 -5 -5 -5 -11z"/>
<path d="M6766 2785 c-3 -8 -1 -15 4 -15 6 0 10 7 10 15 0 8 -2 15 -4 15 -2 0
-6 -7 -10 -15z"/>
<path d="M6812 2765 c0 -16 2 -22 5 -12 2 9 2 23 0 30 -3 6 -5 -1 -5 -18z"/>
<path d="M6838 2773 c7 -3 16 -2 19 1 4 3 -2 6 -13 5 -11 0 -14 -3 -6 -6z"/>
<path d="M7296 2757 c3 -10 9 -15 12 -12 3 3 0 11 -7 18 -10 9 -11 8 -5 -6z"/>
<path d="M6850 2749 c0 -5 -4 -8 -9 -4 -5 3 -12 -4 -16 -15 -4 -11 -11 -17
-17 -14 -6 4 -9 1 -6 -6 2 -8 14 -14 26 -15 16 -1 19 2 12 9 -14 14 -13 29 3
23 8 -3 14 3 14 14 1 10 0 19 -3 19 -2 0 -4 -5 -4 -11z"/>
<path d="M7300 2701 c0 -5 5 -13 10 -16 6 -3 10 -2 10 4 0 5 -4 13 -10 16 -5
3 -10 2 -10 -4z"/>
<path d="M6825 2670 c-3 -6 1 -7 9 -4 18 7 21 14 7 14 -6 0 -13 -4 -16 -10z"/>
<path d="M7311 2644 c0 -11 3 -14 6 -6 3 7 2 16 -1 19 -3 4 -6 -2 -5 -13z"/>
<path d="M6829 2636 c10 -11 9 -16 -5 -24 -15 -8 -15 -10 1 -16 17 -6 17 -7 0
-26 -10 -11 -23 -16 -33 -12 -14 5 -15 4 -2 -10 9 -9 18 -12 21 -6 3 5 21 7
40 4 28 -4 31 -3 18 7 -9 7 -19 25 -23 41 -6 26 -5 28 8 17 11 -9 16 -10 16
-2 0 6 -5 11 -11 11 -5 0 -7 5 -3 12 4 7 3 8 -4 4 -7 -4 -12 -2 -12 3 0 6 -5
11 -11 11 -8 0 -8 -4 0 -14z"/>
<path d="M7326 2570 c4 -30 13 -84 21 -120 8 -36 16 -78 17 -93 2 -15 6 -31
10 -34 8 -8 -2 91 -14 137 -4 19 -11 53 -14 75 -2 22 -10 51 -15 65 -9 20 -10
14 -5 -30z"/>
<path d="M6800 2580 c0 -5 5 -10 11 -10 5 0 7 5 4 10 -3 6 -8 10 -11 10 -2 0
-4 -4 -4 -10z"/>
<path d="M6826 2527 c-11 -8 -16 -21 -13 -33 4 -17 5 -16 6 4 0 12 5 22 10 22
6 0 8 -9 6 -21 -4 -18 -2 -19 11 -8 25 21 45 19 54 -4 6 -15 9 -17 9 -6 1 9
-8 24 -19 34 -11 10 -20 15 -20 10 0 -4 -6 -2 -13 4 -10 8 -18 7 -31 -2z"/>
<path d="M9695 2511 c3 -18 5 -37 5 -42 0 -5 11 -9 25 -9 30 0 32 11 5 28 -12
7 -25 23 -31 35 -8 18 -9 16 -4 -12z"/>
<path d="M6844 2469 c-5 -8 -2 -10 9 -6 8 3 18 0 21 -8 3 -9 0 -12 -10 -8 -8
3 -14 -1 -14 -10 0 -8 -7 -18 -16 -21 -13 -5 -15 -1 -11 21 4 16 4 22 1 15 -3
-6 -11 -9 -17 -5 -7 4 -8 0 -4 -11 4 -10 7 -23 7 -30 0 -6 9 -12 19 -12 11 0
19 3 18 7 -1 4 3 8 8 9 6 2 16 11 23 21 17 24 32 24 33 2 0 -12 2 -14 6 -5 11
28 -57 66 -73 41z"/>
<path d="M6931 2324 c0 -11 3 -14 6 -6 3 7 2 16 -1 19 -3 4 -6 -2 -5 -13z"/>
<path d="M7375 2283 c3 -16 9 -41 14 -58 9 -30 9 -30 10 -4 1 38 -10 89 -20
89 -4 0 -6 -12 -4 -27z"/>
<path d="M7398 2175 c-8 -8 4 -65 13 -65 5 0 8 14 7 31 -2 30 -10 43 -20 34z"/>
<path d="M10981 2114 c0 -11 3 -14 6 -6 3 7 2 16 -1 19 -3 4 -6 -2 -5 -13z"/>
<path d="M7417 2043 c3 -26 9 -56 14 -66 6 -9 7 -22 4 -27 -3 -5 -1 -19 5 -30
7 -13 7 -20 0 -20 -11 0 -9 -28 3 -47 5 -7 13 -13 20 -13 6 0 2 7 -9 15 -15
11 -16 14 -4 15 16 0 23 40 8 40 -4 0 -7 10 -6 23 2 33 -23 157 -32 157 -4 0
-6 -21 -3 -47z"/>
<path d="M10386 2010 c85 -99 138 -156 153 -164 18 -10 -24 37 -119 134 -35
36 -50 49 -34 30z"/>
<path d="M10587 1853 c-9 -19 -17 -44 -17 -57 0 -45 68 -12 84 41 5 17 1 24
-21 35 -28 14 -29 13 -46 -19z"/>
<path d="M10140 1545 c0 -5 5 -17 10 -25 5 -8 10 -10 10 -5 0 6 -5 17 -10 25
-5 8 -10 11 -10 5z"/>
<path d="M10320 1126 c0 -2 8 -10 18 -17 15 -13 16 -12 3 4 -13 16 -21 21 -21
13z"/>
<path d="M10315 1090 c3 -5 8 -10 11 -10 2 0 4 5 4 10 0 6 -5 10 -11 10 -5 0
-7 -4 -4 -10z"/>
<path d="M10247 1053 c-12 -11 -8 -23 9 -23 9 0 12 5 8 12 -5 8 -2 9 9 5 10
-3 17 -2 17 3 0 11 -33 14 -43 3z"/>
<path d="M10210 1030 c0 -5 5 -10 11 -10 5 0 7 5 4 10 -3 6 -8 10 -11 10 -2 0
-4 -4 -4 -10z"/>
<path d="M10183 1015 c0 -8 4 -15 9 -15 4 0 8 4 8 9 0 6 -4 12 -8 15 -5 3 -9
-1 -9 -9z"/>
<path d="M10100 994 c0 -10 -6 -14 -14 -11 -8 3 -20 -1 -26 -9 -9 -10 -9 -14
-1 -14 6 0 11 4 11 9 0 5 9 7 20 4 15 -4 20 0 20 16 0 11 -2 21 -5 21 -3 0 -5
-7 -5 -16z"/>
<path d="M9236 955 c4 -8 8 -15 10 -15 2 0 4 7 4 15 0 8 -4 15 -10 15 -5 0 -7
-7 -4 -15z"/>
<path d="M9400 916 c0 -2 6 -9 14 -15 11 -9 16 -9 22 0 4 8 3 9 -4 5 -7 -4
-12 -2 -12 3 0 6 -4 11 -10 11 -5 0 -10 -2 -10 -4z"/>
<path d="M9800 910 c0 -6 7 -10 15 -10 8 0 15 2 15 4 0 2 -7 6 -15 10 -8 3
-15 1 -15 -4z"/>
<path d="M9535 899 c-4 -6 -4 -13 -1 -16 3 -4 6 -1 6 6 0 7 5 9 12 5 7 -4 8
-3 4 4 -9 15 -13 15 -21 1z"/>
</g>
</svg>
